#Comment line ignore any data following # character 
#Hierarchical Translation and Rotation (.htr) file 
[Header]	
#Header keywords are followed by a single value 
FileType HTR		#Single word string
DataType HTRS		#Translation followed by rotation and scale data
FileVersion 1		#integer
NumSegments 29		#integer
NumFrames 4		#integer
DataFrameRate 30		#integer, data frame rate in this file
EulerRotationOrder ZYX
CalibrationUnits mm
RotationUnits Degrees
GlobalAxisofGravity Y
BoneLengthAxis Y
ScaleFactor 1.00
[SegmentNames&Hierarchy]
#CHILD	PARENT
MASTER GLOBAL
weapon MASTER
back_slider weapon
front_bottom weapon
front_middle_part1 weapon
front_middle_part2 weapon
front_middle_part3 weapon
front_middle_part4 weapon
front_top weapon
wing_bottom_left weapon
wing_bottom_right weapon
wing_top_left weapon
wing_top_right weapon
front_bottom_rumble_left front_bottom
front_bottom_rumble_right front_bottom
back_rotate_bottom_left front_middle_part3
back_rotate_bottom_right front_middle_part3
back_rotate_top_left front_middle_part3
back_rotate_top_right front_middle_part3
front_middle_part3_left front_middle_part3
front_middle_part3_right front_middle_part3
wing_bottom_left_buckets_1 wing_bottom_left
wing_bottom_left_buckets_2 wing_bottom_left
wing_bottom_left_buckets_3 wing_bottom_left
wing_bottom_right_buckets wing_bottom_right
wing_top_left_buckets wing_top_left
wing_top_left_buckets_1 wing_top_left
wing_top_left_buckets_3 wing_top_left
wing_top_right_buckets wing_top_right
[BasePosition]
#SegmentName Tx, Ty, Tz, Rx, Ry, Rz, BoneLength
MASTER 0.000000 0.000000 0.000000 -90.000000 0.000000 0.000000 10.000000 
weapon 0.000000 0.000000 0.000000 0.000000 0.000000 0.000000 10.000000 
back_slider 0.000000 0.000000 0.000000 0.000000 0.000000 0.000000 10.000000 
front_bottom 0.000000 0.000000 0.000000 0.000000 0.000000 0.000000 10.000000 
front_middle_part1 0.000000 0.000000 0.000000 0.000000 0.000000 0.000000 10.000000 
front_middle_part2 0.000000 0.000000 0.000000 0.000000 0.000000 0.000000 10.000000 
front_middle_part3 0.000000 0.000000 0.000000 0.000000 0.000000 0.000000 10.000000 
front_middle_part4 0.000000 0.000000 0.000000 0.000000 0.000000 0.000000 10.000000 
front_top 0.000000 0.000000 0.000000 0.000000 0.000000 0.000000 10.000000 
wing_bottom_left 0.000000 0.000000 0.000000 0.000000 0.000000 0.000000 10.000000 
wing_bottom_right 0.000000 0.000000 0.000000 0.000000 0.000000 0.000000 10.000000 
wing_top_left 0.000000 0.000000 0.000000 0.000000 0.000000 0.000000 10.000000 
wing_top_right 0.000000 0.000000 0.000000 0.000000 0.000000 0.000000 10.000000 
front_bottom_rumble_left 0.000000 0.000000 0.000000 0.000000 0.000000 0.000000 10.000000 
front_bottom_rumble_right 0.000000 0.000000 0.000000 0.000000 0.000000 0.000000 10.000000 
back_rotate_bottom_left 0.000000 0.000000 0.000000 0.000000 0.000000 0.000000 10.000000 
back_rotate_bottom_right 0.000000 0.000000 0.000000 0.000000 0.000000 0.000000 10.000000 
back_rotate_top_left 0.000000 0.000000 0.000000 0.000000 0.000000 0.000000 10.000000 
back_rotate_top_right 0.000000 0.000000 0.000000 0.000000 0.000000 0.000000 10.000000 
front_middle_part3_left 0.000000 0.000000 0.000000 0.000000 0.000000 0.000000 10.000000 
front_middle_part3_right 0.000000 0.000000 0.000000 0.000000 0.000000 0.000000 10.000000 
wing_bottom_left_buckets_1 0.000000 0.000000 0.000000 0.000000 0.000000 0.000000 10.000000 
wing_bottom_left_buckets_2 0.000000 0.000000 0.000000 0.000000 0.000000 0.000000 10.000000 
wing_bottom_left_buckets_3 0.000000 0.000000 0.000000 0.000000 0.000000 0.000000 10.000000 
wing_bottom_right_buckets 0.000000 0.000000 0.000000 0.000000 0.000000 0.000000 10.000000 
wing_top_left_buckets 0.000000 0.000000 0.000000 0.000000 0.000000 0.000000 10.000000 
wing_top_left_buckets_1 0.000000 0.000000 0.000000 0.000000 0.000000 0.000000 10.000000 
wing_top_left_buckets_3 0.000000 0.000000 0.000000 0.000000 0.000000 0.000000 10.000000 
wing_top_right_buckets 0.000000 0.000000 0.000000 0.000000 0.000000 0.000000 10.000000 
#Beginning of Data. Separated by tabs
#Fr	Tx	Ty	Tz	Rx	Ry	Rz	SF
[MASTER]
29 0.000000 0.000000 0.000000 0.000000 0.000000 -0.000020 0.000000
30 0.000000 0.000000 0.000000 0.000000 0.000000 -0.000020 0.000000
31 0.000000 0.000000 0.000000 0.000000 0.000000 -0.000020 0.000000
32 0.000000 0.000000 0.000000 0.000000 0.000000 -0.000020 0.000000
[weapon]
29 0.000000 -79.014671 86.001648 0.000000 -0.000000 0.000000 116.788712
30 0.000000 -79.014671 86.001648 0.000000 -0.000000 0.000000 116.788712
31 0.000000 -79.014671 86.001648 0.000000 -0.000000 0.000000 116.788712
32 0.000000 -79.014671 86.001648 0.000000 -0.000000 0.000000 116.788712
[back_slider]
29 0.000076 -158.826309 -85.992126 0.000000 -0.000000 0.000000 180.611298
30 0.000076 -162.686539 -85.991974 0.000000 -0.000000 0.000000 184.015030
31 0.000153 -161.959641 -85.991974 0.000000 -0.000000 0.000000 183.372696
32 0.000114 -157.923874 -85.992126 0.000000 -0.000000 0.000000 179.818222
[front_bottom]
29 0.000038 571.096252 -271.286835 9.339566 -0.001519 179.998215 632.255859
30 0.000038 568.650146 -272.998810 9.453695 -0.001517 179.998215 630.786316
31 0.000038 570.278564 -271.980957 9.557912 -0.001516 179.998199 631.815857
32 0.000038 574.642700 -269.252686 9.652212 -0.001514 179.998199 634.595398
[front_middle_part1]
29 0.000000 519.313477 -85.992035 179.996811 46.866966 179.996811 526.384949
30 0.000000 519.313477 -85.992035 179.995956 56.160713 179.995956 526.384949
31 0.000000 519.313477 -85.992035 179.994553 65.094460 179.994553 526.384949
32 0.000000 519.313477 -85.992035 179.991760 73.624466 179.991760 526.384949
[front_middle_part2]
29 0.000000 477.040344 -85.992035 179.998703 -37.468239 179.998703 484.728912
30 0.000000 477.040344 -85.992035 179.998734 -46.760929 179.998734 484.728912
31 0.000000 477.040344 -85.992035 179.998779 -55.692215 179.998779 484.728912
32 0.000000 477.040344 -85.992035 179.998795 -64.218437 179.998795 484.728912
[front_middle_part3]
29 0.000076 -267.868256 -85.992126 0.000000 -0.000000 0.000000 281.332642
30 0.000000 -250.826157 -85.992126 0.000000 -0.000000 0.000000 265.157318
31 0.000076 -237.874756 -85.992126 0.000000 -0.000000 0.000000 252.940811
32 0.000019 -231.366394 -85.992203 0.000000 -0.000000 0.000000 246.830048
[front_middle_part4]
29 0.000000 -443.853668 -85.992035 0.000000 -0.000000 0.000000 452.106964
30 0.000000 -443.853668 -85.992035 0.000000 -0.000000 0.000000 452.106964
31 0.000000 -443.853668 -85.992035 0.000000 -0.000000 0.000000 452.106964
32 0.000000 -443.853668 -85.992035 0.000000 -0.000000 0.000000 452.106964
[front_top]
29 0.000000 523.450989 -157.672974 12.489478 0.001469 0.001830 546.682434
30 0.000000 523.450989 -157.672974 6.885243 0.001557 0.001756 546.682434
31 0.000000 523.450989 -157.672974 3.864988 0.001603 0.001715 546.682434
32 0.000000 523.450989 -157.672974 7.757484 0.001544 0.001768 546.682434
[wing_bottom_left]
29 -124.333710 235.191696 -217.766312 165.648300 53.697090 162.387131 343.796692
30 -124.333710 235.191696 -217.766312 165.648285 53.697090 162.387131 343.796692
31 -124.333710 235.191696 -217.766312 165.079269 53.585892 161.677109 343.796692
32 -124.333710 235.191696 -217.766312 164.020874 53.371746 160.366013 343.796692
[wing_bottom_right]
29 124.947586 235.191696 -217.766144 0.000000 54.999989 0.000000 344.019073
30 124.947586 235.191696 -217.766144 0.000000 54.999989 0.000000 344.019073
31 124.947586 235.191696 -217.766144 0.000000 54.999989 0.000000 344.019073
32 124.947586 235.191696 -217.766144 0.000000 54.999989 0.000000 344.019073
[wing_top_left]
29 -124.333710 235.191696 62.502743 -157.777283 -51.715157 152.505249 273.277527
30 -124.333710 235.191696 62.502743 -158.378677 -51.900841 153.268845 273.277527
31 -124.333710 235.191696 62.502743 -159.136444 -52.135857 154.230072 273.277527
32 -124.333710 235.191696 62.502743 -160.013382 -52.383198 155.336197 273.277527
[wing_top_right]
29 131.595657 235.191696 62.502682 -0.000000 -55.000015 0.000000 276.657074
30 131.595657 235.191696 62.502682 -0.000000 -55.000015 0.000000 276.657074
31 131.595657 235.191696 62.502682 -0.000000 -55.000015 0.000000 276.657074
32 131.595657 235.191696 62.502682 -0.000000 -55.000015 0.000000 276.657074
[front_bottom_rumble_left]
29 163.070297 263.743958 -16.969442 -129.881882 18.229330 75.387009 310.549133
30 163.070297 263.743958 -16.969442 -129.881882 18.229330 75.387009 310.549133
31 163.070297 263.743958 -16.969442 -129.881882 18.229330 75.387009 310.549133
32 163.070297 263.743958 -16.969442 -129.881882 18.229330 75.387009 310.549133
[front_bottom_rumble_right]
29 -163.070480 263.743835 -16.969442 -50.118145 18.229362 104.612976 310.549133
30 -163.070480 263.743835 -16.969442 -50.118145 18.229362 104.612976 310.549133
31 -163.070480 263.743835 -16.969442 -50.118145 18.229362 104.612976 310.549133
32 -163.070480 263.743835 -16.969442 -50.118145 18.229362 104.612976 310.549133
[back_rotate_bottom_left]
29 -38.067558 -195.870575 -38.097980 0.000000 -0.000000 0.000000 203.140045
30 -38.067558 -195.870575 -38.097980 0.000000 -0.000000 0.000000 203.140045
31 -38.067558 -195.870575 -38.097980 0.000000 -0.000000 0.000000 203.140045
32 -38.067558 -195.870575 -38.097980 0.000000 -0.000000 0.000000 203.140045
[back_rotate_bottom_right]
29 38.098610 -195.870575 -38.057903 0.000000 -0.000000 0.000000 203.138351
30 38.098610 -195.870575 -38.057903 0.000000 -0.000000 0.000000 203.138351
31 38.098610 -195.870575 -38.057903 0.000000 -0.000000 0.000000 203.138351
32 38.098610 -195.870575 -38.057903 0.000000 -0.000000 0.000000 203.138351
[back_rotate_top_left]
29 -38.074085 -195.870575 38.105885 0.000000 -0.000000 0.000000 203.142746
30 -38.074085 -195.870575 38.105885 0.000000 -0.000000 0.000000 203.142746
31 -38.074085 -195.870575 38.105885 0.000000 -0.000000 0.000000 203.142746
32 -38.074085 -195.870575 38.105885 0.000000 -0.000000 0.000000 203.142746
[back_rotate_top_right]
29 38.111603 -195.870575 38.079086 0.000000 -0.000000 0.000000 203.144760
30 38.111603 -195.870575 38.079086 0.000000 -0.000000 0.000000 203.144760
31 38.111603 -195.870575 38.079086 0.000000 -0.000000 0.000000 203.144760
32 38.111603 -195.870575 38.079086 0.000000 -0.000000 0.000000 203.144760
[front_middle_part3_left]
29 -90.176353 364.727234 0.463104 90.000198 0.000024 -13.661839 375.709900
30 -90.176353 364.727234 0.463104 90.002350 0.000470 -22.602489 375.709900
31 -90.176353 364.727234 0.463104 89.997017 0.002899 -26.270279 375.709900
32 -90.176353 364.727234 0.463104 90.000145 0.000040 -29.235014 375.709900
[front_middle_part3_right]
29 91.046051 364.727081 0.046265 -90.000000 0.000003 180.000000 375.919159
30 91.046051 364.727081 0.046265 -90.000000 0.000003 180.000000 375.919159
31 91.046051 364.727081 0.046265 -90.000000 0.000003 180.000000 375.919159
32 91.046051 364.727081 0.046265 -90.000000 0.000003 180.000000 375.919159
[wing_bottom_left_buckets_1]
29 -47.610477 -288.454193 -9.889640 -0.000027 0.000020 -0.000035 292.524170
30 -47.610477 -288.454193 -9.889640 -0.000027 0.000020 -0.000035 292.524170
31 -47.610477 -288.454193 -9.889640 -0.000027 0.000020 -0.000035 292.524170
32 -47.610477 -288.454193 -9.889640 -0.000027 0.000020 -0.000035 292.524170
[wing_bottom_left_buckets_2]
29 -47.610565 -358.672546 -9.889595 -0.000031 -0.000003 -0.000031 361.953827
30 -47.610565 -358.672546 -9.889595 -0.000031 -0.000003 -0.000031 361.953827
31 -47.610565 -358.672546 -9.889595 -0.000031 -0.000003 -0.000031 361.953827
32 -47.610565 -358.672546 -9.889595 -0.000031 -0.000003 -0.000031 361.953827
[wing_bottom_left_buckets_3]
29 -47.610672 -428.104828 -9.889513 -0.000027 0.000020 -0.000035 430.857635
30 -47.610672 -428.104828 -9.889513 -0.000027 0.000020 -0.000035 430.857635
31 -47.610672 -428.104828 -9.889513 -0.000027 0.000020 -0.000035 430.857635
32 -47.610672 -428.104828 -9.889513 -0.000027 0.000020 -0.000035 430.857635
[wing_bottom_right_buckets]
29 -47.962635 -358.672546 9.386807 0.000027 0.000061 -0.000035 361.986908
30 -47.962635 -358.672546 9.386807 0.000027 0.000061 -0.000035 361.986908
31 -47.962635 -358.672546 9.386807 0.000027 0.000061 -0.000035 361.986908
32 -47.962635 -358.672546 9.386807 0.000027 0.000061 -0.000035 361.986908
[wing_top_left_buckets]
29 -45.484066 -358.586609 10.598831 0.000027 0.000000 -0.000031 361.615112
30 -45.484066 -358.586609 10.598831 0.000027 0.000000 -0.000031 361.615112
31 -45.484066 -358.586609 10.598831 0.000027 0.000000 -0.000031 361.615112
32 -45.484066 -358.586609 10.598831 0.000027 0.000000 -0.000031 361.615112
[wing_top_left_buckets_1]
29 -45.484005 -287.973450 10.598879 0.000027 0.000000 -0.000035 291.735931
30 -45.484005 -287.973450 10.598879 0.000027 0.000000 -0.000035 291.735931
31 -45.484005 -287.973450 10.598879 0.000027 0.000000 -0.000035 291.735931
32 -45.484005 -287.973450 10.598879 0.000027 0.000000 -0.000035 291.735931
[wing_top_left_buckets_3]
29 -45.484154 -426.601654 10.598794 0.000027 0.000000 -0.000035 429.150452
30 -45.484154 -426.601654 10.598794 0.000027 0.000000 -0.000035 429.150452
31 -45.484154 -426.601654 10.598794 0.000027 0.000000 -0.000035 429.150452
32 -45.484154 -426.601654 10.598794 0.000027 0.000000 -0.000035 429.150452
[wing_top_right_buckets]
29 -46.906902 -358.586700 -9.449236 -0.000044 -0.000038 -0.000035 361.765076
30 -46.906902 -358.586700 -9.449236 -0.000044 -0.000038 -0.000035 361.765076
31 -46.906902 -358.586700 -9.449236 -0.000044 -0.000038 -0.000035 361.765076
32 -46.906902 -358.586700 -9.449236 -0.000044 -0.000038 -0.000035 361.765076
